<?xml version="1.0" standalone="no"?>
<svg viewBox="0 0 200 200" xmlns="http://www.w3.org/2000/svg">
  <path fill="#181717" d="M40.4,-69.3C48.9,-57.3,50.2,-40.4,53.8,-26.4C57.3,-12.3,63.2,-1.2,62.5,9.5C61.8,20.2,54.4,30.5,46.5,41C38.5,51.4,29.9,62,18.5,67.2C7.1,72.5,-7.1,72.4,-21.7,70C-36.4,67.5,-51.6,62.7,-62,52.6C-72.4,42.6,-78.1,27.3,-80.8,11.4C-83.5,-4.6,-83.1,-21.2,-73.8,-30.4C-64.5,-39.7,-46.2,-41.6,-32.4,-51.2C-18.6,-60.8,-9.3,-78.2,3.3,-83.3C15.9,-88.4,31.8,-81.3,40.4,-69.3Z" transform="translate(100 100)" />
</svg>
